<?xml version="1.0" standalone="yes"?>
<svg xmlns="http://www.w3.org/2000/svg" width="32" height="32">
<path style="fill:#ffffff; stroke:none;" d="M0 0L0 32L3 32L3 0L0 0z"/>
<path style="fill:#e9e9e0; stroke:none;" d="M3 0L3 22L29 22L29 7L21 7L21 1L28 6C22.0281 -2.20272 12.1245 0 3 0z"/>
<path style="fill:#ffffff; stroke:none;" d="M23 0C30.2241 10.4304 29 19.591 29 32L32 32L32 0L23 0z"/>
<path style="fill:#e6ddc7; stroke:none;" d="M21 1L21 7L29 7L29 6L21 1z"/>
<path style="fill:#efcd93; stroke:none;" d="M10 7L11 8L10 7z"/>
<path style="fill:#efb252; stroke:none;" d="M11 7L11 18L12 18L11 7z"/>
<path style="fill:#efcd93; stroke:none;" d="M19 7L20 8L19 7z"/>
<path style="fill:#efb252; stroke:none;" d="M20.3333 7.66667L20.6667 8.33333L20.3333 7.66667z"/>
<path style="fill:#e6ddc7; stroke:none;" d="M11 8L11 11L12 11L11 8z"/>
<path style="fill:#efcd93; stroke:none;" d="M21 8L20 12L21 12L21 8z"/>
<path style="fill:#e6ddc7; stroke:none;" d="M15 9L16 10L15 9z"/>
<path style="fill:#efb252; stroke:none;" d="M15 10L16 11L15 10z"/>
<path style="fill:#efcd93; stroke:none;" d="M16 10L17 11L16 10M9 11L10 12L9 11z"/>
<path style="fill:#e6ddc7; stroke:none;" d="M15 11L16 12L15 11z"/>
<path style="fill:#efb252; stroke:none;" d="M21 11L21 14L23 13L23 12L21 11z"/>
<path style="fill:#efcd93; stroke:none;" d="M8 12L9 13L8 12M10 12L11 13L10 12M9 13L10 14L9 13M20 13L21 17L22 17L20 13z"/>
<path style="fill:#e6ddc7; stroke:none;" d="M22 13L23 14L22 13M11 14L11 17L12 17L11 14z"/>
<path style="fill:#efb252; stroke:none;" d="M15.3333 14.6667L15.6667 15.3333L15.3333 14.6667z"/>
<path style="fill:#e6ddc7; stroke:none;" d="M16.3333 14.6667L16.6667 15.3333L16.3333 14.6667M15 16L16 17L15 16z"/>
<path style="fill:#efb252; stroke:none;" d="M20.3333 16.6667L20.6667 17.3333L20.3333 16.6667z"/>
<path style="fill:#efcd93; stroke:none;" d="M10 17L11 18L10 17M19 17L20 18L19 17z"/>
<path style="fill:#e6ddc7; stroke:none;" d="M11 18L12 19L11 18M19 18L20 19L19 18z"/>
<path style="fill:#efcd93; stroke:none;" d="M3 22L3 32L4 32L4 23L28 23L28 32L29 32L29 22L3 22z"/>
<path style="fill:#efb252; stroke:none;" d="M4 23L4 32L28 32L28 23L4 23z"/>
<path style="fill:#efcd93; stroke:none;" d="M14 24L15 25L14 24M17 24L17 27L19 24L17 24z"/>
<path style="fill:#ffffff; stroke:none;" d="M14 25L14 29L15 29L14 25z"/>
<path style="fill:#e6ddc7; stroke:none;" d="M16.3333 25.6667L16.6667 26.3333L16.3333 25.6667M17 27L18 28L17 27z"/>
<path style="fill:#e9e9e0; stroke:none;" d="M18 27L19 28L18 27z"/>
<path style="fill:#efcd93; stroke:none;" d="M16 30L17 31L20 30L20 29L16 30M11 29L14 31L14 30L11 29z"/>
<path style="fill:#e6ddc7; stroke:none;" d="M12 29L13 30L12 29z"/>
<path style="fill:#e9e9e0; stroke:none;" d="M13.6667 29.3333L14.3333 29.6667L13.6667 29.3333M18 29L19 30L18 29z"/>
</svg>
