<?xml version="1.0" standalone="yes"?>
<svg xmlns="http://www.w3.org/2000/svg" width="32" height="32">
<path style="fill:#010101; stroke:none;" d="M0 0L0 32L32 32L32 0L0 0z"/>
<path style="fill:#d0d4fd; stroke:none;" d="M4 22L28 22L28 8C23.5335 7.30256 21.6974 5.46653 21 1C16.9052 1 9.86137 -0.336761 6.3179 2.02778C1.80045 5.04225 4 17.2199 4 22z"/>
<path style="fill:#afb3fd; stroke:none;" d="M21 1C21.3732 5.89158 23.1084 7.62683 28 8L28 7L21 1z"/>
<path style="fill:#969bfc; stroke:none;" d="M22 2C22.5765 5.47445 23.5256 6.42348 27 7L22 2z"/>
<path style="fill:#afb3fd; stroke:none;" d="M12 11L15 12L15 9L12 11z"/>
<path style="fill:#969bfc; stroke:none;" d="M15 9L15 10L18 11L15 9z"/>
<path style="fill:#afb3fd; stroke:none;" d="M17 9L18 10L17 9z"/>
<path style="fill:#969bfc; stroke:none;" d="M11 10C9.49039 13.2245 9.47931 14.4471 12 17L10 14L10 13L11 10M14 10L15 11L14 10z"/>
<path style="fill:#afb3fd; stroke:none;" d="M18 10L18 13L17 14L15 16L20 10L18 10z"/>
<path style="fill:#969bfc; stroke:none;" d="M20 10L22 13L22 14L20 17C22.6447 14.3043 22.6447 12.6957 20 10M17 12L18 13L17 12z"/>
<path style="fill:#afb3fd; stroke:none;" d="M8 13L9 14L8 13z"/>
<path style="fill:#969bfc; stroke:none;" d="M16 13L17 14L16 13z"/>
<path style="fill:#afb3fd; stroke:none;" d="M23 13L24 14L23 13M12 16L13 17L12 16M19 16L20 17L19 16M15.6667 17.3333L16.3333 17.6667L15.6667 17.3333z"/>
<path style="fill:#969bfc; stroke:none;" d="M4 22L4 29L5 29L5 23L27 23L27 29L28 29L28 22L4 22z"/>
<path style="fill:#5b5dff; stroke:none;" d="M5 23L5 30L27 30L27 23L5 23z"/>
<path style="fill:#969bfc; stroke:none;" d="M10 24L11 25L10 24z"/>
<path style="fill:#d0d4fd; stroke:none;" d="M11.6667 24.3333L12.3333 24.6667L11.6667 24.3333z"/>
<path style="fill:#969bfc; stroke:none;" d="M13 25L13 26L19 25L13 25z"/>
<path style="fill:#d0d4fd; stroke:none;" d="M19.6667 24.3333L20.3333 24.6667L19.6667 24.3333z"/>
<path style="fill:#afb3fd; stroke:none;" d="M12 28L13 26C10.6279 24.7608 9.58363 26.6429 12 28M14 25L14 28L20 28L21 26L14 25z"/>
<path style="fill:#969bfc; stroke:none;" d="M21 25L22 26L21 25z"/>
<path style="fill:#d0d4fd; stroke:none;" d="M11.6667 26.3333L12.3333 26.6667L11.6667 26.3333M15.6667 26.3333L16.3333 26.6667L15.6667 26.3333M19.6667 26.3333L20.3333 26.6667L19.6667 26.3333z"/>
<path style="fill:#969bfc; stroke:none;" d="M10.6667 28.3333L11.3333 28.6667L10.6667 28.3333M14 28L14 29L20 29L14 28M6.66667 30.3333L7.33333 30.6667L6.66667 30.3333M24.6667 30.3333L25.3333 30.6667L24.6667 30.3333z"/>
</svg>
