<?xml version="1.0" standalone="yes"?>
<svg xmlns="http://www.w3.org/2000/svg" width="32" height="32">
<path style="fill:#ffffff; stroke:none;" d="M0 0L0 32L8 32L8 31L2.63117 26.9807L7.22377 17.9961L13 0L0 0z"/>
<path style="fill:#010101; stroke:none;" d="M13 0L14 1L13 0z"/>
<path style="fill:#030103; stroke:none;" d="M14 0L15 1L14 0z"/>
<path style="fill:#010103; stroke:none;" d="M13 7L13 8C11.1398 9.86019 11.4345 10.4493 14 11L15 7L16 7C20.7374 14.8768 26.3548 26.2812 13 29C11.7793 21.5429 9.1553 19.9058 12 12L6 22L12 31L30 28C26.023 20.7706 25.2094 7.8491 19.7215 1.89738C16.1351 -1.99205 10.3828 2.69042 13 7z"/>
<path style="fill:#010101; stroke:none;" d="M19 0L20 1L19 0z"/>
<path style="fill:#ffffff; stroke:none;" d="M20 0C22.2417 8.46933 32.7515 24.1355 25 31L25 32L32 32L32 0L20 0z"/>
<path style="fill:#010105; stroke:none;" d="M12 1L13 2L12 1z"/>
<path style="fill:#030103; stroke:none;" d="M19 1L20 2L19 1z"/>
<path style="fill:#010101; stroke:none;" d="M11.3333 2.66667L11.6667 3.33333L11.3333 2.66667z"/>
<path style="fill:#030103; stroke:none;" d="M13 4L14 7L15 7L13 4M16 4L17 5L16 4z"/>
<path style="fill:#010101; stroke:none;" d="M21 4L22 5L21 4M13 5L14 6L13 5M16 5L17 6L16 5z"/>
<path style="fill:#010105; stroke:none;" d="M21 5L22 6L21 5M11 6L12 7L11 6z"/>
<path style="fill:#010101; stroke:none;" d="M11 7L12 8L11 7z"/>
<path style="fill:#030103; stroke:none;" d="M12 7L13 8L12 7M15 7L16 8L15 7z"/>
<path style="fill:#010105; stroke:none;" d="M11 8L12 9L11 8z"/>
<path style="fill:#010101; stroke:none;" d="M14 8L13 10L14 8z"/>
<path style="fill:#ffffff; stroke:none;" d="M15 8L14 10L16 10L15 8z"/>
<path style="fill:#010101; stroke:none;" d="M16 8L19 11L16 8M21 9L22 10L21 9z"/>
<path style="fill:#030103; stroke:none;" d="M14 10L14 11L17 11L14 10z"/>
<path style="fill:#010101; stroke:none;" d="M22 10L23 11L22 10M11.6667 11.3333L12.3333 11.6667L11.6667 11.3333z"/>
<path style="fill:#ffffff; stroke:none;" d="M13 11C9.5582 18.2738 9.88634 20.8128 13 28C23.1467 27.226 21.7368 18.1066 19 11L13 11z"/>
<path style="fill:#010101; stroke:none;" d="M14.6667 11.3333L15.3333 11.6667L14.6667 11.3333z"/>
<path style="fill:#030103; stroke:none;" d="M22 11L23 12L22 11z"/>
<path style="fill:#010101; stroke:none;" d="M19 12L20 13L19 12M9 13L10 14L9 13z"/>
<path style="fill:#010105; stroke:none;" d="M11 13L12 14L11 13z"/>
<path style="fill:#010101; stroke:none;" d="M24.3333 13.6667L24.6667 14.3333L24.3333 13.6667M8 14L9 15L8 14M11 14L12 15L11 14M20 14L21 15L20 14z"/>
<path style="fill:#010105; stroke:none;" d="M8 15L9 16L8 15z"/>
<path style="fill:#010101; stroke:none;" d="M8 16L9 17L8 16M10 16L11 17L10 16M26 16L27 17L26 16M7 17L8 18L7 17z"/>
<path style="fill:#030103; stroke:none;" d="M9 17L10 18L9 17z"/>
<path style="fill:#010101; stroke:none;" d="M21 17L22 18L21 17z"/>
<path style="fill:#030103; stroke:none;" d="M7 18L8 19L7 18z"/>
<path style="fill:#010101; stroke:none;" d="M9 18L10 19L9 18M22 18L22 22L23 22L22 18M6.33333 19.6667L6.66667 20.3333L6.33333 19.6667M2 24L2 25L7 25L7 22L2 24z"/>
<path style="fill:#030103; stroke:none;" d="M9 22L10 23L9 22z"/>
<path style="fill:#010101; stroke:none;" d="M20 22L20 24L22 22L20 22M27 22L28 23L27 22z"/>
<path style="fill:#030103; stroke:none;" d="M6 23L7 24L6 23z"/>
<path style="fill:#ffffff; stroke:none;" d="M7 23L4 25L4 29L11 30L7 23z"/>
<path style="fill:#030103; stroke:none;" d="M8 23L9 24L8 23M10 23L11 24L10 23z"/>
<path style="fill:#010105; stroke:none;" d="M27 23L28 24L27 23z"/>
<path style="fill:#010103; stroke:none;" d="M4.66667 24.3333L5.33333 24.6667L4.66667 24.3333z"/>
<path style="fill:#010101; stroke:none;" d="M8 24L9 25L8 24z"/>
<path style="fill:#030103; stroke:none;" d="M11 24L12 25L11 24z"/>
<path style="fill:#010105; stroke:none;" d="M20 24L21 25L20 24z"/>
<path style="fill:#030103; stroke:none;" d="M25 24L26 25L25 24M27 24L28 25L27 24z"/>
<path style="fill:#010105; stroke:none;" d="M2 25L3 26L2 25z"/>
<path style="fill:#010103; stroke:none;" d="M3.33333 25.6667L3.66667 26.3333L3.33333 25.6667z"/>
<path style="fill:#010101; stroke:none;" d="M9 25L10 26L9 25z"/>
<path style="fill:#ffffff; stroke:none;" d="M22 25L22 30L27 26L22 25z"/>
<path style="fill:#010101; stroke:none;" d="M23.6667 25.3333L24.3333 25.6667L23.6667 25.3333M26 25L27 26L26 25M28 25L29 26L28 25M2 26L3 27L2 26z"/>
<path style="fill:#030103; stroke:none;" d="M10 26L11 27L10 26z"/>
<path style="fill:#010101; stroke:none;" d="M19 26L20 27L19 26z"/>
<path style="fill:#030103; stroke:none;" d="M21.3333 26.6667L21.6667 27.3333L21.3333 26.6667z"/>
<path style="fill:#010101; stroke:none;" d="M27.3333 26.6667L27.6667 27.3333L27.3333 26.6667M29 26L30 27L29 26z"/>
<path style="fill:#010105; stroke:none;" d="M2 27L3 28L2 27z"/>
<path style="fill:#030103; stroke:none;" d="M3 27L2 29L4 29L3 27z"/>
<path style="fill:#010101; stroke:none;" d="M10 27L11 28L10 27z"/>
<path style="fill:#010105; stroke:none;" d="M18 27L19 28L18 27z"/>
<path style="fill:#010101; stroke:none;" d="M11 28L10 32L13 32L11 28z"/>
<path style="fill:#030103; stroke:none;" d="M13 28L13 29L17 29L13 28z"/>
<path style="fill:#010101; stroke:none;" d="M25 28L26 29L25 28M2 29L3 30L2 29z"/>
<path style="fill:#010103; stroke:none;" d="M3 29L3 30L8 31L8 30L3 29z"/>
<path style="fill:#030103; stroke:none;" d="M5 29L6 30L5 29z"/>
<path style="fill:#010101; stroke:none;" d="M7 29L8 30L7 29z"/>
<path style="fill:#010105; stroke:none;" d="M24 29L25 30L24 29z"/>
<path style="fill:#010101; stroke:none;" d="M26.6667 29.3333L27.3333 29.6667L26.6667 29.3333M4 30L5 31L4 30z"/>
<path style="fill:#030103; stroke:none;" d="M6 30L7 31L6 30z"/>
<path style="fill:#010101; stroke:none;" d="M8.33333 30.6667L8.66667 31.3333L8.33333 30.6667z"/>
<path style="fill:#010103; stroke:none;" d="M9.33333 30.6667L9.66667 31.3333L9.33333 30.6667z"/>
<path style="fill:#030103; stroke:none;" d="M13 30L14 31L13 30z"/>
<path style="fill:#010101; stroke:none;" d="M16 30L17 31L16 30z"/>
<path style="fill:#030103; stroke:none;" d="M19 30L20 31L19 30z"/>
<path style="fill:#010101; stroke:none;" d="M22 30L23 31L22 30z"/>
<path style="fill:#030103; stroke:none;" d="M11 31L12 32L11 31z"/>
<path style="fill:#ffffff; stroke:none;" d="M13 31L13 32L20 32L13 31z"/>
<path style="fill:#010101; stroke:none;" d="M20 31L21 32L20 31M24 31L25 32L24 31z"/>
</svg>
